<?xml version="1.0" encoding="UTF-8"?>
<svg width="24px" height="24px" viewBox="0 0 24 24" version="1.1" xmlns="http://www.w3.org/2000/svg" xmlns:xlink="http://www.w3.org/1999/xlink">
    <title>heart</title>
    <g id="navigation" stroke="none" stroke-width="1" fill="none" fill-rule="evenodd" stroke-linecap="round" stroke-linejoin="round">
        <g id="icons-24x24" transform="translate(-30.000000, -30.000000)" stroke="#757575" stroke-width="2">
            <g id="heart" transform="translate(30.000000, 30.000000)">
                <path d="M19.2327273,6.11727242 C18.3887529,5.2729018 17.2438402,4.798506 16.05,4.798506 C14.8561598,4.798506 13.7112471,5.2729018 12.8672727,6.11727242 L12,6.98454514 L11.1327273,6.11727242 C9.37495553,4.35950073 6.52504449,4.35950075 4.76727277,6.11727246 C3.00950106,7.87504418 3.00950104,10.7249552 4.76727273,12.482727 L5.63454545,13.3499997 L11.2928932,19.0083475 C11.6834175,19.3988717 12.3165825,19.3988717 12.7071068,19.0083475 L18.3654545,13.3499997 L18.3654545,13.3499997 L19.2327273,12.482727 C20.0770979,11.6387526 20.5514937,10.4938399 20.5514937,9.29999969 C20.5514937,8.10615949 20.0770979,6.96124676 19.2327273,6.11727242 Z" id="Path"></path>
            </g>
        </g>
    </g>
</svg>